<?xml version="1.0" encoding="UTF-8"?>
<!DOCTYPE svg PUBLIC "-//W3C//DTD SVG 1.1//EN" "http://www.w3.org/Graphics/SVG/1.1/DTD/svg11.dtd">
<svg xmlns="http://www.w3.org/2000/svg" version="1.1" width="1425px" height="1425px" style="shape-rendering:geometricPrecision; text-rendering:geometricPrecision; image-rendering:optimizeQuality; fill-rule:evenodd; clip-rule:evenodd" xmlns:xlink="http://www.w3.org/1999/xlink">
<g><path style="opacity:0.999" fill="#f8e07d" d="M 666.5,-0.5 C 696.833,-0.5 727.167,-0.5 757.5,-0.5C 963.415,16.6983 1132.58,103.698 1265,260.5C 1359.89,378.743 1413.06,514.076 1424.5,666.5C 1424.5,696.833 1424.5,727.167 1424.5,757.5C 1407.3,963.424 1320.3,1132.59 1163.5,1265C 1045.21,1359.92 909.874,1413.09 757.5,1424.5C 727.167,1424.5 696.833,1424.5 666.5,1424.5C 460.542,1407.28 291.375,1320.28 159,1163.5C 64.0821,1045.22 10.9154,909.883 -0.5,757.5C -0.5,727.167 -0.5,696.833 -0.5,666.5C 16.7239,460.532 103.724,291.366 260.5,159C 378.792,64.0767 514.126,10.9101 666.5,-0.5 Z"/></g>
<g><path style="opacity:1" fill="#f6ce61" d="M 575.5,212.5 C 557.437,212.025 539.437,212.692 521.5,214.5C 524.868,212.941 528.535,212.108 532.5,212C 547.006,211.173 561.339,211.339 575.5,212.5 Z"/></g>
<g><path style="opacity:1" fill="#f5ba41" d="M 575.5,212.5 C 654.659,216.492 705.492,256.492 728,332.5C 728.696,340.126 730.363,347.459 733,354.5C 733.912,359.464 734.412,364.464 734.5,369.5C 735.29,384.82 735.623,400.153 735.5,415.5C 734.219,433.256 732.219,450.922 729.5,468.5C 726.266,483.67 723.266,499.004 720.5,514.5C 718.464,525.465 716.298,536.465 714,547.5C 707.372,570.421 701.039,593.421 695,616.5C 689.74,636.28 684.074,655.946 678,675.5C 658.748,738.815 641.415,802.482 626,866.5C 624.562,875.854 623.062,885.187 621.5,894.5C 620.224,896.562 619.39,898.896 619,901.5C 614.705,925.652 613.372,949.985 615,974.5C 615.278,975.416 615.778,976.082 616.5,976.5C 617.815,989.538 623.482,1000.37 633.5,1009C 646.2,1017.06 659.2,1017.56 672.5,1010.5C 684.355,1002.82 695.188,993.819 705,983.5C 724.539,960.631 742.539,936.631 759,911.5C 823.4,811.04 880.233,706.373 929.5,597.5C 944.678,562.706 959.844,528.039 975,493.5C 982.86,478.301 993.027,464.801 1005.5,453C 1018.98,441.056 1033.65,439.389 1049.5,448C 1054.59,454.627 1056.43,462.127 1055,470.5C 1048.73,484.316 1043.06,498.316 1038,512.5C 1033.41,528.791 1028.08,544.791 1022,560.5C 997.416,647.245 979.25,735.578 967.5,825.5C 965.363,835.93 964.03,846.597 963.5,857.5C 961.499,877.838 959.332,898.171 957,918.5C 956.04,931.15 955.54,943.817 955.5,956.5C 954.675,960.647 954.175,964.981 954,969.5C 953.333,997.167 953.333,1024.83 954,1052.5C 954.64,1066.41 956.14,1080.07 958.5,1093.5C 961.497,1115.52 967.997,1136.52 978,1156.5C 995.464,1180.36 1015.63,1182.86 1038.5,1164C 1053.53,1147.47 1065.69,1128.97 1075,1108.5C 1081.69,1102.04 1088.52,1102.04 1095.5,1108.5C 1096.63,1110.07 1096.8,1111.74 1096,1113.5C 1084.2,1146.94 1065.03,1175.44 1038.5,1199C 1030.39,1204.56 1021.72,1208.72 1012.5,1211.5C 1002.82,1211.53 993.151,1211.2 983.5,1210.5C 975.216,1208.82 967.216,1205.99 959.5,1202C 954.833,1198.67 950.167,1195.33 945.5,1192C 927.352,1172.86 914.518,1150.7 907,1125.5C 904.51,1116.87 902.343,1108.2 900.5,1099.5C 898.598,1086.68 896.598,1074.02 894.5,1061.5C 892.886,1046.57 891.719,1031.57 891,1016.5C 890.206,986.148 890.372,955.814 891.5,925.5C 893.841,905.716 895.174,885.716 895.5,865.5C 895.5,864.833 895.5,864.167 895.5,863.5C 897.45,855.087 898.45,846.42 898.5,837.5C 899.98,824.513 901.313,811.513 902.5,798.5C 905.894,779.74 908.561,760.74 910.5,741.5C 911.434,740.432 911.768,739.099 911.5,737.5C 907.818,737.335 904.152,737.501 900.5,738C 875.472,784.566 849.305,830.399 822,875.5C 799.278,911.886 774.611,946.886 748,980.5C 732.132,999.369 714.632,1016.54 695.5,1032C 684.569,1039.63 672.902,1045.97 660.5,1051C 656.914,1052.11 653.247,1052.61 649.5,1052.5C 638.817,1052.57 628.15,1052.24 617.5,1051.5C 588.764,1046.9 566.93,1032.24 552,1007.5C 540.671,987.175 534.838,965.509 534.5,942.5C 533.358,917.955 535.025,893.622 539.5,869.5C 544.219,845.741 549.385,822.074 555,798.5C 576.89,723.921 599.223,649.587 622,575.5C 630.066,543.227 638.733,511.227 648,479.5C 650.049,469.872 651.882,460.205 653.5,450.5C 656.559,439.49 658.559,428.157 659.5,416.5C 660.047,409.485 660.713,402.485 661.5,395.5C 663.049,386.89 663.716,378.057 663.5,369C 663.629,358.295 662.962,347.795 661.5,337.5C 659.113,313.237 650.946,291.237 637,271.5C 620.771,254.301 600.938,243.801 577.5,240C 535.18,234.183 497.513,244.516 464.5,271C 435.438,298.273 414.271,330.773 401,368.5C 392.791,389.682 386.624,411.349 382.5,433.5C 380.031,442.545 378.698,451.879 378.5,461.5C 374.505,493.017 374.672,524.684 379,556.5C 381.697,572.319 385.03,587.986 389,603.5C 395.667,623.502 405.001,642.168 417,659.5C 434.107,681.303 456.607,692.303 484.5,692.5C 476.199,706.136 464.199,710.636 448.5,706C 421.484,703.908 398.651,693.075 380,673.5C 366.542,657.596 355.875,639.929 348,620.5C 344.525,609.077 340.859,597.744 337,586.5C 334.59,573.117 331.923,559.784 329,546.5C 328.501,542.848 328.335,539.182 328.5,535.5C 326.578,505.723 327.578,476.056 331.5,446.5C 341.934,385.968 365.767,331.302 403,282.5C 430.655,248.529 465.822,226.363 508.5,216C 512.813,215.265 517.147,214.765 521.5,214.5C 539.437,212.692 557.437,212.025 575.5,212.5 Z"/></g>
<g><path style="opacity:1" fill="#f6cc5e" d="M 661.5,337.5 C 662.962,347.795 663.629,358.295 663.5,369C 663.716,378.057 663.049,386.89 661.5,395.5C 662.567,376.175 662.567,356.842 661.5,337.5 Z"/></g>
<g><path style="opacity:1" fill="#f6d064" d="M 734.5,369.5 C 735.982,378.622 736.649,387.955 736.5,397.5C 736.5,403.676 736.166,409.676 735.5,415.5C 735.623,400.153 735.29,384.82 734.5,369.5 Z"/></g>
<g><path style="opacity:1" fill="#f6cd60" d="M 659.5,416.5 C 658.559,428.157 656.559,439.49 653.5,450.5C 654.872,438.925 656.872,427.591 659.5,416.5 Z"/></g>
<g><path style="opacity:1" fill="#f6cf63" d="M 382.5,433.5 C 381.615,443.026 380.282,452.359 378.5,461.5C 378.698,451.879 380.031,442.545 382.5,433.5 Z"/></g>
<g><path style="opacity:1" fill="#f6ce62" d="M 729.5,468.5 C 727.483,483.572 724.983,498.572 722,513.5C 721.617,514.056 721.117,514.389 720.5,514.5C 723.266,499.004 726.266,483.67 729.5,468.5 Z"/></g>
<g><path style="opacity:1" fill="#f6cb5d" d="M 331.5,446.5 C 327.578,476.056 326.578,505.723 328.5,535.5C 327.698,534.048 327.198,532.382 327,530.5C 326.333,512.833 326.333,495.167 327,477.5C 327.614,466.897 329.114,456.563 331.5,446.5 Z"/></g>
<g><path style="opacity:1" fill="#f6cc5e" d="M 910.5,741.5 C 908.561,760.74 905.894,779.74 902.5,798.5C 904.116,779.219 906.783,760.219 910.5,741.5 Z"/></g>
<g><path style="opacity:1" fill="#f6ce61" d="M 967.5,825.5 C 967.135,836.422 965.801,847.089 963.5,857.5C 964.03,846.597 965.363,835.93 967.5,825.5 Z"/></g>
<g><path style="opacity:1" fill="#f6cd60" d="M 898.5,837.5 C 898.45,846.42 897.45,855.087 895.5,863.5C 895.67,854.596 896.67,845.929 898.5,837.5 Z"/></g>
<g><path style="opacity:1" fill="#f6cb5d" d="M 539.5,869.5 C 535.025,893.622 533.358,917.955 534.5,942.5C 532.438,918.826 533.605,895.16 538,871.5C 538.278,870.584 538.778,869.918 539.5,869.5 Z"/></g>
<g><path style="opacity:1" fill="#f6cc5f" d="M 895.5,865.5 C 895.174,885.716 893.841,905.716 891.5,925.5C 891.943,905.29 893.276,885.29 895.5,865.5 Z"/></g>
<g><path style="opacity:1" fill="#f7d46b" d="M 621.5,894.5 C 615.649,921.564 613.982,948.897 616.5,976.5C 615.778,976.082 615.278,975.416 615,974.5C 613.372,949.985 614.705,925.652 619,901.5C 619.39,898.896 620.224,896.562 621.5,894.5 Z"/></g>
<g><path style="opacity:1" fill="#f6ce61" d="M 955.5,956.5 C 953.512,1002.24 954.512,1047.91 958.5,1093.5C 956.14,1080.07 954.64,1066.41 954,1052.5C 953.333,1024.83 953.333,997.167 954,969.5C 954.175,964.981 954.675,960.647 955.5,956.5 Z"/></g>
<g><path style="opacity:1" fill="#f6ca5b" d="M 617.5,1051.5 C 628.15,1052.24 638.817,1052.57 649.5,1052.5C 645.514,1053.17 641.347,1053.5 637,1053.5C 630.269,1053.65 623.769,1052.98 617.5,1051.5 Z"/></g>
<g><path style="opacity:1" fill="#f6ce61" d="M 894.5,1061.5 C 896.598,1074.02 898.598,1086.68 900.5,1099.5C 896.791,1087.24 894.791,1074.57 894.5,1061.5 Z"/></g>
<g><path style="opacity:1" fill="#f6ce60" d="M 983.5,1210.5 C 993.151,1211.2 1002.82,1211.53 1012.5,1211.5C 1008.68,1212.17 1004.68,1212.5 1000.5,1212.5C 994.583,1212.7 988.916,1212.03 983.5,1210.5 Z"/></g>
</svg>
